# xmcd CD database file
#
# Track frame offsets:
#	150
#	10042
#	47448
#	86333
#	111001
#	119503
#	146014
#	177078
#	233841
#
# Disc length: 3199 seconds
#
# Revision: 1
# Processed by: cddbd v1.5.2PL0 Copyright (c) Steve Scherf et al.
# Submitted via: CDex 1.70beta2
#
DISCID=670c7d09
DTITLE=Twine - Violets
DYEAR=2008
DGENRE=Jazz
TTITLE0=Small
TTITLE1=Endormie (feat. Alison Shaw)
TTITLE2=Violets
TTITLE3=In Through The Devices
TTITLE4=From Memory (feat. Gail Schadt)
TTITLE5=Disconnected
TTITLE6=Longsided
TTITLE7=Lightrain
TTITLE8=Something Like Eternity (feat. Gail Schadt)
EXTD=YEAR: 2008
EXTT0=
EXTT1=
EXTT2=
EXTT3=
EXTT4=
EXTT5=
EXTT6=
EXTT7=
EXTT8=
PLAYORDER=
